<svg width="812" height="879" viewBox="0 0 812 879" fill="none" xmlns="http://www.w3.org/2000/svg">
<g clip-path="url(#clip0_39_36)">
<path d="M748.047 498.466H749.993C750.504 498.55 751.029 498.474 751.495 498.248L748.047 498.466Z" fill="black"/>
<path d="M361.18 52.5783C361.18 52.5783 469.889 153.587 465.852 256.134C461.814 358.68 318.886 446.783 304.402 550.411C289.918 654.038 373.179 705.233 373.179 705.233C373.179 705.233 199.523 651.939 189.832 522.054C180.142 392.17 466.307 207.214 361.18 52.5783Z" fill="url(#paint0_linear_39_36)"/>
<path d="M566.993 308.503C597.577 458.93 507.265 486.944 507.265 486.944C536.699 352.685 512.017 274.754 491.735 237.17C534.287 379.701 357.142 455.626 357.142 564.251C357.142 672.876 450.818 716.902 450.818 716.902C498.785 593.065 594.73 604.879 615.664 509.221C637.012 425.576 604.203 356.29 566.993 308.503Z" fill="url(#paint1_linear_39_36)"/>
<path d="M405.353 878.685C391.522 878.704 377.868 875.57 365.42 869.521C362 867.916 358.977 865.57 356.568 862.652C354.435 859.778 351.32 857.794 347.819 857.083C236.763 829.651 125.71 802.171 14.6603 774.643C5.22846 772.305 0.755826 768.304 0.113921 761.488C-0.869643 750.9 7.90996 743.605 18.6256 746.255C54.7518 755.191 90.8676 764.165 126.973 773.177C204.036 792.31 281.103 811.412 358.173 830.483C359.868 830.888 361.606 831.087 363.349 831.075C391.821 831.075 420.293 831.646 448.733 830.774C458.693 830.472 468.591 826.877 478.437 824.435C569.746 801.811 661.045 779.145 752.334 756.438C765.876 753.071 779.421 749.732 792.97 746.421C801.895 744.25 809.784 748.499 811.606 756.511C813.428 764.522 808.904 771.671 800.135 773.853C740.438 788.726 680.734 803.557 621.023 818.346C567.876 831.508 514.704 844.701 461.509 857.925C460.101 858.278 458.279 858.964 457.627 860.055C453.247 867.547 445.917 870.944 438.328 873.043C427.599 876.21 416.54 878.114 405.374 878.717C405.249 878.228 405.446 879.132 405.353 878.685Z" fill="#2C364F"/>
<path d="M476.264 762.496L475.983 762.788H476.295L476.44 762.423L476.264 762.475V762.496Z" fill="black"/>
<path d="M438.439 801.628C439.292 801.087 440.027 800.38 440.603 799.55C478.32 763.972 561.737 716.777 732.452 732.217C736.504 732.799 740.549 733.416 744.587 734.067C745.817 734.307 747.09 734.214 748.272 733.797C748.272 733.797 472.222 655.523 412.825 835.335C412.825 835.346 419.265 820.342 438.439 801.628Z" fill="#2C364F"/>
<path d="M758.626 751.035C758.626 751.035 525.853 701.294 432.052 828.187C432.093 828.187 546.984 728.331 758.626 751.035Z" fill="#2C364F"/>
<path d="M375.19 801.628C374.341 801.087 373.609 800.38 373.037 799.55C335.32 763.972 251.903 716.777 81.1771 732.217C77.1324 732.799 73.0877 733.416 69.043 734.067C67.8191 734.305 66.554 734.212 65.3779 733.797C65.3779 733.797 341.428 655.523 400.825 835.335C400.794 835.346 394.375 820.342 375.19 801.628Z" fill="#2C364F"/>
<path d="M54.9634 751.035C54.9634 751.035 287.737 701.294 381.538 828.187C381.538 828.187 266.647 728.331 54.9634 751.035Z" fill="#2C364F"/>
</g>
<defs>
<linearGradient id="paint0_linear_39_36" x1="277.173" y1="353.477" x2="626" y2="544" gradientUnits="userSpaceOnUse">
<stop stop-color="#204594"/>
<stop offset="0.541667" stop-color="#1194B1"/>
<stop offset="1" stop-color="#05D7CA"/>
</linearGradient>
<linearGradient id="paint1_linear_39_36" x1="566" y1="568" x2="323.367" y2="395.285" gradientUnits="userSpaceOnUse">
<stop stop-color="#05D7CA"/>
<stop offset="1" stop-color="#1194B1"/>
</linearGradient>
<clipPath id="clip0_39_36">
<rect width="812" height="878.81" fill="white"/>
</clipPath>
</defs>
</svg>
